<?xml version="1.0" standalone="no"?>
<!DOCTYPE svg PUBLIC "-//W3C//DTD SVG 20010904//EN"
 "http://www.w3.org/TR/2001/REC-SVG-20010904/DTD/svg10.dtd">
<svg version="1.0" xmlns="http://www.w3.org/2000/svg"
 width="320.000000pt" height="320.000000pt" viewBox="0 0 320.000000 320.000000"
 preserveAspectRatio="xMidYMid meet">

<g transform="translate(0.000000,320.000000) scale(0.100000,-0.100000)"
fill="#333" stroke="none">
<path d="M1557 3028 c-38 -17 -1480 -1305 -1502 -1342 -10 -15 -19 -56 -22
-90 -3 -51 0 -67 19 -98 31 -49 1360 -1288 1407 -1311 74 -36 179 2 216 80 25
52 31 130 13 173 -10 24 -169 181 -501 495 l-485 460 1172 5 1173 5 35 27 c43
33 88 119 88 167 -1 52 -32 114 -76 147 l-37 29 -1176 5 -1175 5 530 483 c343
313 537 496 548 518 35 74 7 173 -62 219 -46 30 -124 41 -165 23z"/>
</g>
</svg>
