<?xml version="1.0" standalone="no"?>
<!DOCTYPE svg PUBLIC "-//W3C//DTD SVG 20010904//EN"
 "http://www.w3.org/TR/2001/REC-SVG-20010904/DTD/svg10.dtd">
<svg version="1.0" xmlns="http://www.w3.org/2000/svg"
 width="494.000000pt" height="505.000000pt" viewBox="0 0 494.000000 505.000000"
 preserveAspectRatio="xMidYMid meet">

<g transform="translate(0.000000,505.000000) scale(0.100000,-0.100000)"
fill="#fff" stroke="none">
<path d="M2120 5024 c-139 -21 -369 -80 -495 -126 -344 -127 -626 -308 -896
-578 -354 -353 -566 -746 -674 -1245 -41 -190 -48 -284 -42 -562 5 -238 7
-269 35 -403 110 -520 336 -938 698 -1291 183 -177 329 -288 521 -392 289
-158 555 -248 868 -294 166 -24 515 -24 675 0 419 65 826 232 1145 472 94 71
285 253 397 380 268 301 470 731 553 1175 26 140 38 416 26 602 -56 862 -590
1651 -1376 2033 -217 106 -421 172 -675 220 -123 24 -629 30 -760 9z m451
-312 c136 -71 274 -339 368 -717 16 -66 33 -135 36 -152 l7 -33 -506 0 -506 0
0 25 c0 35 62 271 104 397 86 255 184 412 301 479 67 38 124 39 196 1z m-591
-37 c0 -3 -23 -51 -51 -108 -88 -174 -173 -419 -240 -686 -10 -41 -19 -55 -39
-63 -24 -10 -929 -3 -938 7 -3 2 30 48 73 102 265 332 615 573 1035 714 106
35 160 47 160 34z m1165 -40 c142 -47 382 -164 515 -252 130 -86 260 -194 365
-304 83 -87 215 -247 215 -261 0 -4 -218 -8 -483 -8 l-484 0 -28 108 c-71 275
-143 479 -235 661 l-52 104 39 -6 c22 -4 88 -23 148 -42z m-1532 -1141 c-9
-48 -44 -390 -49 -479 -4 -60 -12 -116 -17 -123 -9 -12 -85 -13 -427 -8 -228
3 -497 5 -597 6 l-183 0 0 33 c0 66 101 407 160 540 l21 47 547 -2 c400 -2
546 -6 545 -14z m1420 -6 c9 -36 37 -331 45 -472 5 -85 4 -129 -3 -132 -5 -1
-280 -2 -610 -1 l-600 2 2 100 c2 105 16 277 34 433 l11 92 558 0 558 0 5 -22z
m1417 -40 c64 -143 173 -529 154 -548 -13 -12 -1199 -26 -1207 -14 -3 6 -13
92 -21 191 -9 100 -23 232 -31 294 -8 62 -15 116 -15 120 0 14 56 16 573 18
l518 1 29 -62z m-2897 -1065 c6 -207 29 -503 51 -648 l12 -85 -549 2 -549 3
-44 108 c-93 229 -151 480 -161 685 l-6 132 620 0 620 0 6 -197z m1537 55 c0
-191 -35 -671 -55 -765 l-5 -23 -559 0 -559 0 -11 93 c-27 221 -51 574 -51
745 l0 92 620 0 620 0 0 -142z m1546 39 c-16 -248 -88 -541 -189 -769 l-26
-58 -547 0 -546 0 6 33 c19 106 49 457 62 750 l7 147 620 0 620 0 -7 -103z
m-2968 -1141 c5 -6 21 -60 36 -121 58 -234 158 -507 243 -664 l45 -83 -33 7
c-75 16 -301 101 -414 154 -211 101 -377 215 -544 376 -108 103 -281 301 -281
321 0 11 40 14 193 17 459 7 747 4 755 -7z m1305 -5 c10 -10 -51 -248 -104
-406 -75 -224 -169 -387 -267 -458 -54 -40 -119 -61 -159 -51 -126 29 -253
193 -348 449 -44 118 -127 422 -123 450 3 19 13 20 153 26 192 8 838 0 848
-10z m1255 4 c7 -6 -63 -96 -157 -203 -212 -239 -487 -432 -792 -556 -134 -55
-308 -110 -317 -102 -2 3 14 38 36 78 79 142 193 457 246 677 14 56 28 106 32
112 5 9 123 11 478 5 258 -3 472 -9 474 -11z"/>
</g>
</svg>
