<?xml version="1.0" standalone="no"?>
<!DOCTYPE svg PUBLIC "-//W3C//DTD SVG 20010904//EN"
 "http://www.w3.org/TR/2001/REC-SVG-20010904/DTD/svg10.dtd">
<svg version="1.0" xmlns="http://www.w3.org/2000/svg"
 width="320.000000pt" height="320.000000pt" viewBox="0 0 320.000000 320.000000"
 preserveAspectRatio="xMidYMid meet">

<g transform="translate(0.000000,320.000000) scale(0.100000,-0.100000)"
fill="#fff" stroke="none">
<path d="M1463 3160 c-359 -51 -665 -273 -830 -605 -124 -248 -148 -506 -78
-849 108 -532 402 -1049 879 -1543 115 -119 120 -123 161 -123 41 0 46 4 146
108 285 294 505 592 653 881 196 384 297 798 274 1126 -33 473 -395 891 -858
991 -84 18 -267 25 -347 14z m229 -601 c180 -37 346 -200 387 -379 13 -58 13
-192 0 -250 -50 -218 -264 -390 -484 -390 -219 0 -434 174 -484 390 -13 58
-13 192 0 250 31 136 139 269 270 334 109 54 204 67 311 45z"/>
</g>
</svg>
